<svg width="107" height="36" viewBox="0 0 107 36" fill="none" xmlns="http://www.w3.org/2000/svg">
                  <path d="M0.18819 18.5127C0.435642 15.478 1.16719 5.04205 1.34201 0.182612C7.88733 -1.10371 8.54466 4.72047 8.05517 7.79335L7.32091 17.9767C7.07616 20.4779 6.79645 24.6442 7.63559 21.2997C8.68452 17.1192 9.94324 15.1897 12.146 14.8681C14.3487 14.5465 15.8172 18.7271 16.1319 25.4803C16.4466 32.2335 17.8102 32.2335 19.9081 30.0896C21.5864 28.3745 23.9156 23.9042 24.0205 23.6898C24.1254 23.4754 24.573 23.2466 24.838 23.4436C25.2024 23.7144 24.838 24.6227 24.838 24.6227C22.915 28.7318 18.4815 36.1139 16.1319 32.7694C13.1949 28.5889 15.1879 23.9796 13.09 19.9062C11.4117 16.6475 10.2929 21.6928 9.94324 24.6227C9.61065 27.4098 8.68454 33.4126 6.48177 35.0205C3.33287 37.319 1.64185 35.0838 0.817548 33.3054C-0.126468 31.2687 -0.126474 22.3717 0.18819 18.5127Z" fill="#696CFF"/>
                  <path d="M31.07 28V5.71H34.67V14.74C34.92 14.35 35.25 13.975 35.66 13.615C36.07 13.245 36.57 12.945 37.16 12.715C37.76 12.475 38.475 12.355 39.305 12.355C40.295 12.355 41.2 12.545 42.02 12.925C42.84 13.305 43.495 13.855 43.985 14.575C44.475 15.285 44.72 16.135 44.72 17.125V28H41.06V17.74C41.06 16.94 40.775 16.32 40.205 15.88C39.645 15.44 38.935 15.22 38.075 15.22C37.505 15.22 36.96 15.32 36.44 15.52C35.92 15.72 35.5 16.02 35.18 16.42C34.87 16.81 34.715 17.3 34.715 17.89V28H31.07ZM51.4838 21.085C51.4738 21.965 51.6138 22.745 51.9038 23.425C52.1938 24.105 52.6238 24.64 53.1938 25.03C53.7638 25.41 54.4688 25.6 55.3088 25.6C56.1688 25.6 56.9138 25.41 57.5438 25.03C58.1838 24.64 58.6088 24.05 58.8188 23.26H62.1638C61.9838 24.34 61.5538 25.255 60.8738 26.005C60.1938 26.755 59.3688 27.325 58.3988 27.715C57.4388 28.105 56.4388 28.3 55.3988 28.3C53.8988 28.3 52.5788 27.985 51.4388 27.355C50.3088 26.715 49.4238 25.805 48.7838 24.625C48.1538 23.445 47.8388 22.04 47.8388 20.41C47.8388 18.82 48.1288 17.41 48.7088 16.18C49.2888 14.94 50.1238 13.965 51.2138 13.255C52.3138 12.545 53.6338 12.19 55.1738 12.19C56.7038 12.19 57.9888 12.515 59.0288 13.165C60.0788 13.815 60.8688 14.725 61.3988 15.895C61.9388 17.055 62.2088 18.415 62.2088 19.975V21.085H51.4838ZM51.4838 18.82H58.7588C58.7588 18.07 58.6288 17.395 58.3688 16.795C58.1088 16.185 57.7088 15.705 57.1688 15.355C56.6388 14.995 55.9688 14.815 55.1588 14.815C54.3588 14.815 53.6838 15.01 53.1338 15.4C52.5838 15.79 52.1688 16.295 51.8888 16.915C51.6088 17.525 51.4738 18.16 51.4838 18.82ZM70.081 28.225C69.081 28.225 68.281 28.1 67.681 27.85C67.081 27.6 66.631 27.265 66.331 26.845C66.031 26.425 65.836 25.955 65.746 25.435C65.656 24.905 65.611 24.365 65.611 23.815V5.71H69.181V23.395C69.181 24.065 69.316 24.585 69.586 24.955C69.866 25.325 70.316 25.54 70.936 25.6L71.716 25.63V27.925C71.446 28.005 71.171 28.075 70.891 28.135C70.611 28.195 70.341 28.225 70.081 28.225ZM77.6166 21.085C77.6066 21.965 77.7466 22.745 78.0366 23.425C78.3266 24.105 78.7566 24.64 79.3266 25.03C79.8966 25.41 80.6016 25.6 81.4416 25.6C82.3016 25.6 83.0466 25.41 83.6766 25.03C84.3166 24.64 84.7416 24.05 84.9516 23.26H88.2966C88.1166 24.34 87.6866 25.255 87.0066 26.005C86.3266 26.755 85.5016 27.325 84.5316 27.715C83.5716 28.105 82.5716 28.3 81.5316 28.3C80.0316 28.3 78.7116 27.985 77.5716 27.355C76.4416 26.715 75.5566 25.805 74.9166 24.625C74.2866 23.445 73.9716 22.04 73.9716 20.41C73.9716 18.82 74.2616 17.41 74.8416 16.18C75.4216 14.94 76.2566 13.965 77.3466 13.255C78.4466 12.545 79.7666 12.19 81.3066 12.19C82.8366 12.19 84.1216 12.515 85.1616 13.165C86.2116 13.815 87.0016 14.725 87.5316 15.895C88.0716 17.055 88.3416 18.415 88.3416 19.975V21.085H77.6166ZM77.6166 18.82H84.8916C84.8916 18.07 84.7616 17.395 84.5016 16.795C84.2416 16.185 83.8416 15.705 83.3016 15.355C82.7716 14.995 82.1016 14.815 81.2916 14.815C80.4916 14.815 79.8166 15.01 79.2666 15.4C78.7166 15.79 78.3016 16.295 78.0216 16.915C77.7416 17.525 77.6066 18.16 77.6166 18.82ZM98.1788 28.3C96.6988 28.3 95.4088 27.985 94.3088 27.355C93.2088 26.715 92.3538 25.8 91.7438 24.61C91.1438 23.42 90.8438 21.99 90.8438 20.32C90.8438 18.7 91.1338 17.28 91.7138 16.06C92.3038 14.84 93.1488 13.89 94.2488 13.21C95.3488 12.53 96.6638 12.19 98.1938 12.19C99.6738 12.19 100.959 12.515 102.049 13.165C103.139 13.815 103.979 14.745 104.569 15.955C105.169 17.165 105.469 18.62 105.469 20.32C105.469 21.89 105.184 23.275 104.614 24.475C104.054 25.665 103.229 26.6 102.139 27.28C101.059 27.96 99.7388 28.3 98.1788 28.3ZM98.1938 25.525C99.0338 25.525 99.7238 25.295 100.264 24.835C100.814 24.375 101.219 23.745 101.479 22.945C101.749 22.145 101.884 21.235 101.884 20.215C101.884 19.265 101.764 18.39 101.524 17.59C101.294 16.79 100.904 16.15 100.354 15.67C99.8138 15.18 99.0938 14.935 98.1938 14.935C97.3438 14.935 96.6388 15.16 96.0788 15.61C95.5288 16.05 95.1138 16.67 94.8338 17.47C94.5638 18.26 94.4288 19.175 94.4288 20.215C94.4288 21.155 94.5488 22.03 94.7888 22.84C95.0388 23.64 95.4388 24.29 95.9888 24.79C96.5388 25.28 97.2738 25.525 98.1938 25.525Z" fill="#6C798B"/>
                </svg>